<?xml version="1.0" encoding="UTF-8"?><svg id="Layer_1" xmlns="http://www.w3.org/2000/svg" width="238.6" height="238.6" viewBox="0 0 238.6 238.6"><defs><style>.cls-1{fill:#fff;}</style></defs><path class="cls-1" d="M0,0h238.6v238.6H0V0ZM235.28,3.31H3.31v231.97h231.97V3.31Z"/><path class="cls-1" d="M93.45,41.75v33.14l3.66-.63,21.2-21.23c1.56,0,18.43,20.55,22.53,21.58.94.24,2.05-.34,2.99-.39l-.67-32.46h3.98s0,60.97,0,60.97h-56.67l-.99-60.97h3.97ZM134.54,74.89l-16.24-16.55-15.57,15.57,5.6,1.02c6.2-.21,12.42.17,18.61,0,2.66-.07,4.71-1.36,7.59-.03ZM93.45,78.21v20.55l23.87.32-19.52-20.24-4.35-.63ZM134.54,78.21h-32.48l16.24,16.56,16.24-16.56ZM143.16,99.41l.43-20.21c-.52-1.61-3.14-1.21-4.12-.37l-19.51,19.59c.46.39,2.49.99,2.98.99h20.21Z"/><path class="cls-1" d="M64.29,122.94c5.14-2.49,12.72,1.71,15.13,6.74,4.05,8.46.2,14.47-7,18.63-.56.32-1.1-.19-.84,1.13,2.4,2.86,6.19,4.47,9.94,4.32l-.3,3.34c-1.84,2.94-11.32-2.83-12.95-4.67v5.31s-3.98,0-3.98,0v-34.8ZM68.26,145.15c11.24-1.07,11.38-17.35,0-18.56v18.56Z"/><path class="cls-1" d="M53.02,157.73l-4.57-.06-3.14-8.46-11.58.3-2.23,7.57-4.32.65c-.61-.57,2.04-6.1,2.05-7.66,0-.55-2.62-2.5-1.39-4.93l3.26-.06,6.78-22.38h3.47s11.69,35.03,11.69,35.03ZM44.41,145.15l-3.98-14.58c-1.03.1-1,1.01-1.28,1.7-1.57,4.01-2.44,8.82-4.02,12.88h9.28Z"/><path class="cls-1" d="M184.25,157.73l-4.55-.08-3.16-8.44-11.58.3-2.23,7.57-4.32.65c-.61-.57,2.04-6.1,2.05-7.66,0-.55-2.62-2.5-1.39-4.93l3.26-.06,6.78-22.37h3.46s11.69,35.02,11.69,35.02ZM175.63,145.15l-3.98-14.58c-1.03.1-1,1.01-1.28,1.7-1.61,4.12-2.5,8.71-4.02,12.88h9.28Z"/><path class="cls-1" d="M194.85,122.94l1.35-.72c3.98.5,7.78.75,11.24,3.04l.04-2.62c1.48.16,3-1.21,3.94.3v34.8h-3.98v-26.84c-.62-1.77-8.62-5.81-8.62-3.31v27.84c0,.19.71.69.61,1.25l-.58.76-4.01.31v-34.8Z"/><polygon class="cls-1" points="96.76 126.59 90.07 126.28 89.48 122.62 107.45 122.34 107.43 126.28 100.74 126.59 100.74 157.74 96.76 157.74 96.76 126.59"/><path class="cls-1" d="M141.76,126.52c-11.74,3.72,1.59,10.14,3.96,14.41,4.29,7.71-1.84,17.25-10.51,16.81-.57-6.03,5.29-3.04,7.32-8.92,2.9-8.41-8.49-9.67-9.27-16.67-.63-5.68,3.14-8.87,8.25-10.19l.25,4.56Z"/><polygon class="cls-1" points="116.65 178.28 116.65 181.6 107.37 181.6 107.36 185.58 116 185.96 115.99 188.89 107.36 188.88 107.37 193.53 116.65 193.53 116.65 196.84 104.05 196.84 104.05 178.28 116.65 178.28"/><rect class="cls-1" x="118.64" y="121.95" width="3.98" height="35.79"/><path class="cls-1" d="M151.11,178.95l-.68,3.31c-11.76-5.84-17.24,10.6-5.64,11.31,1.64.1,8.26-1.7,6.01,1.97-2.03,3.31-12.55,1.06-14.85-3.1-5.59-10.09,6.11-17.03,15.16-13.49Z"/><path class="cls-1" d="M96.77,178.95l-.69,3.31c-6.55-4.1-16.9,3.46-10.55,9.58,3.46,3.34,7.9.63,10.19,1.1,2.67.55.63,3.24-2.09,3.73-19.49,3.53-16.48-24.72,3.14-17.73Z"/><path class="cls-1" d="M164.16,178.51c7.91.16,9.65,11.31.74,13.22-10.62,2.28-12.42-13.46-.74-13.22ZM167.35,185.26c0-2.09-1.7-3.79-3.79-3.79s-3.79,1.7-3.79,3.79,1.7,3.79,3.79,3.79,3.79-1.7,3.79-3.79Z"/><path class="cls-1" d="M70.9,178.31c.94.63.99,17.78-.04,18.46-.47.31-1.56-.02-2.22.11-2.1-5.61-.39-11.75-.93-17.54l.97-.99,2.23-.04Z"/><rect class="cls-1" x="157.08" y="194.19" width="12.59" height="2.65"/></svg>